Coordinates
nRows=5
nColumns=24

# SIMM Motion File Header:
name Coordinates
datacolumns 24
datarows 5
otherdata 1
range 0.33833000000000002000 0.34233000000000002000
endheader
time	pelvis_tx	pelvis_ty	pelvis_tz	pelvis_tilt	pelvis_list	pelvis_rotation	hip_flexion_r	hip_adduction_r	hip_rotation_r	knee_angle_r	ankle_angle_r	subtalar_angle_r	mtp_angle_r	hip_flexion_l	hip_adduction_l	hip_rotation_l	knee_angle_l	ankle_angle_l	subtalar_angle_l	mtp_angle_l	lumbar_extension	lumbar_bending	lumbar_rotation
      0.33833000000000002000	     -0.79841976433886774000	      0.96659798123295737000	      0.27329722936743472000	      2.97552443286939020000	      1.65746052719413410000	     -2.26356910301202950000	      0.41096746617974933000	     -4.67959897451150210000	      8.16228491246814870000	    -43.79961685232831300000	      0.06050941183379494900	     -0.00000000000000034273	      0.00000000000000034961	      5.69557917162097650000	      2.42223660473825710000	      6.56065443062951030000	    -10.57785425336776600000	      1.95147376700620410000	     -0.00000000000000048093	      0.00000000000004059355	    -11.42836865290507100000	     -5.19706050298820620000	      7.23780489805490390000
      0.33933000000000002000	     -0.79793343020455598000	      0.96665415983553438000	      0.27327320727214433000	      2.98246079044103850000	      1.64499283367767910000	     -2.26535684066302780000	      0.47907236425315824000	     -4.65380046319036560000	      8.18627193283944440000	    -43.81985738069901300000	      0.20580650593107166000	     -0.00000000000000035518	      0.00000000000000035279	      5.65185002784377040000	      2.41579431429038790000	      6.55799056615937290000	    -10.57435953954297700000	      1.98633703875340100000	     -0.00000000000000042069	      0.00000000000004154340	    -11.43989873421770300000	     -5.19128030738952000000	      7.24565518341197470000
      0.34033000000000002000	     -0.79744781785026775000	      0.96671026372705793000	      0.27324949193248121000	      2.98903615792725130000	      1.63321056374195920000	     -2.26762911799082100000	      0.54776139602491269000	     -4.62875787699476950000	      8.21063851958694180000	    -43.83836306694126300000	      0.33865304855940875000	     -0.00000000000000036482	      0.00000000000000034325	      5.60876323495441300000	      2.41013175919272000000	      6.55288197632965910000	    -10.57129993696387900000	      2.02112508152128490000	     -0.00000000000000033515	      0.00000000000004243543	    -11.45095240713230900000	     -5.18619163850993380000	      7.25363161077798770000
      0.34133000000000002000	     -0.79696318345960027000	      0.96676626586909897000	      0.27322619242805751000	      2.99512248214754310000	      1.62235532469346590000	     -2.27055764022865290000	      0.61724164032611373000	     -4.60473735711152530000	      8.23551944703831400000	    -43.85451950124080200000	      0.45465011505341807000	     -0.00000000000000037062	      0.00000000000000031630	      5.56654662303440160000	      2.40552387362170310000	      6.54446304217908190000	    -10.56883004403906600000	      2.05581474229384040000	     -0.00000000000000021517	      0.00000000000004324900	    -11.46136072455580500000	     -5.18203803014716160000	      7.26177898317746880000
      0.34233000000000002000	     -0.79647854906893290000	      0.96682226801114002000	      0.27320289292363387000	      3.00120880636783530000	      1.61150008564497260000	     -2.27348616246648480000	      0.68672188462731476000	     -4.58071683722828030000	      8.26040037448968610000	    -43.87067593554033400000	      0.57064718154742733000	     -0.00000000000000037641	      0.00000000000000028934	      5.52433001111438940000	      2.40091598805068610000	      6.53604410802850480000	    -10.56636015111425300000	      2.09050440306639640000	     -0.00000000000000009518	      0.00000000000004406257	    -11.47176904197929800000	     -5.17788442178438850000	      7.26992635557694910000
